<mxfile host="app.diagrams.net" modified="2023-08-20T05:31:03.235Z" agent="Mozilla/5.0 (Windows NT 10.0; Win64; x64) AppleWebKit/537.36 (KHTML, like Gecko) Chrome/115.0.0.0 Safari/537.36 Edg/115.0.1901.203" etag="Hc6uEM5J06bevTi6iXUA" version="21.6.8" type="device">
  <diagram name="Page-1" id="WSL-wbmJHQKZbTSwDXou">
    <mxGraphModel dx="1909" dy="2084" grid="1" gridSize="10" guides="1" tooltips="1" connect="1" arrows="1" fold="1" page="1" pageScale="1" pageWidth="850" pageHeight="1100" math="0" shadow="0">
      <root>
        <mxCell id="0" />
        <mxCell id="1" parent="0" />
        <mxCell id="sKgOpA5cONmXiSNSF2R4-91" value="" style="shape=ext;double=1;rounded=0;whiteSpace=wrap;html=1;" vertex="1" parent="1">
          <mxGeometry x="380" y="-860" width="960" height="420" as="geometry" />
        </mxCell>
        <mxCell id="sKgOpA5cONmXiSNSF2R4-25" value="" style="whiteSpace=wrap;strokeWidth=2;fontStyle=0" vertex="1" parent="1">
          <mxGeometry x="425" y="-720" width="170" height="200" as="geometry" />
        </mxCell>
        <mxCell id="sKgOpA5cONmXiSNSF2R4-58" value="Genesis Block" style="text;strokeColor=none;fillColor=none;html=1;fontSize=24;fontStyle=1;verticalAlign=middle;align=center;" vertex="1" parent="1">
          <mxGeometry x="460" y="-760" width="100" height="40" as="geometry" />
        </mxCell>
        <mxCell id="sKgOpA5cONmXiSNSF2R4-61" value="&lt;ul&gt;&lt;li&gt;&lt;span style=&quot;text-align: center;&quot;&gt;Previous Block Hash&lt;/span&gt;&lt;/li&gt;&lt;li&gt;&lt;span style=&quot;text-align: center;&quot;&gt;Nonce&lt;/span&gt;&lt;/li&gt;&lt;li&gt;&lt;span style=&quot;text-align: center;&quot;&gt;Merkle Root&lt;/span&gt;&lt;/li&gt;&lt;li&gt;&lt;span style=&quot;text-align: center;&quot;&gt;Time Stamp&lt;/span&gt;&lt;/li&gt;&lt;/ul&gt;&lt;div style=&quot;text-align: center;&quot;&gt;&lt;br&gt;&lt;/div&gt;&lt;ul&gt;&lt;li&gt;Transaction counter&lt;br style=&quot;border-color: var(--border-color); padding: 0px; margin: 0px; text-align: center;&quot;&gt;&lt;/li&gt;&lt;li&gt;&lt;span style=&quot;text-align: center;&quot;&gt;Hash&lt;/span&gt;&lt;/li&gt;&lt;li&gt;&lt;span style=&quot;text-align: center;&quot;&gt;Transactions&lt;/span&gt;&lt;br&gt;&lt;/li&gt;&lt;/ul&gt;" style="text;strokeColor=none;fillColor=none;html=1;whiteSpace=wrap;verticalAlign=middle;overflow=hidden;" vertex="1" parent="1">
          <mxGeometry x="425" y="-710" width="170" height="190" as="geometry" />
        </mxCell>
        <mxCell id="sKgOpA5cONmXiSNSF2R4-63" value="&lt;p style=&quot;line-height: 120%; font-size: 15px;&quot;&gt;Block Header&lt;/p&gt;" style="text;strokeColor=none;fillColor=none;html=1;fontSize=24;fontStyle=1;verticalAlign=middle;align=center;" vertex="1" parent="1">
          <mxGeometry x="435" y="-720" width="100" height="40" as="geometry" />
        </mxCell>
        <mxCell id="sKgOpA5cONmXiSNSF2R4-66" value="&lt;font style=&quot;font-size: 15px;&quot;&gt;Block Body&lt;/font&gt;" style="text;strokeColor=none;fillColor=none;html=1;fontSize=24;fontStyle=1;verticalAlign=middle;align=center;" vertex="1" parent="1">
          <mxGeometry x="435" y="-630" width="80" height="40" as="geometry" />
        </mxCell>
        <mxCell id="sKgOpA5cONmXiSNSF2R4-72" value="" style="whiteSpace=wrap;strokeWidth=2;fontStyle=0" vertex="1" parent="1">
          <mxGeometry x="665" y="-720" width="170" height="200" as="geometry" />
        </mxCell>
        <mxCell id="sKgOpA5cONmXiSNSF2R4-73" value="Block 1" style="text;strokeColor=none;fillColor=none;html=1;fontSize=24;fontStyle=1;verticalAlign=middle;align=center;" vertex="1" parent="1">
          <mxGeometry x="700" y="-760" width="100" height="40" as="geometry" />
        </mxCell>
        <mxCell id="sKgOpA5cONmXiSNSF2R4-74" value="&lt;ul&gt;&lt;li&gt;&lt;span style=&quot;text-align: center;&quot;&gt;Previous Block Hash&lt;/span&gt;&lt;/li&gt;&lt;li&gt;&lt;span style=&quot;text-align: center;&quot;&gt;Nonce&lt;/span&gt;&lt;/li&gt;&lt;li&gt;&lt;span style=&quot;text-align: center;&quot;&gt;Merkle Root&lt;/span&gt;&lt;/li&gt;&lt;li&gt;&lt;span style=&quot;text-align: center;&quot;&gt;Time Stamp&lt;/span&gt;&lt;/li&gt;&lt;/ul&gt;&lt;div style=&quot;text-align: center;&quot;&gt;&lt;br&gt;&lt;/div&gt;&lt;ul&gt;&lt;li&gt;Transaction counter&lt;br style=&quot;border-color: var(--border-color); padding: 0px; margin: 0px; text-align: center;&quot;&gt;&lt;/li&gt;&lt;li&gt;&lt;span style=&quot;text-align: center;&quot;&gt;Hash&lt;/span&gt;&lt;/li&gt;&lt;li&gt;&lt;span style=&quot;text-align: center;&quot;&gt;Transactions&lt;/span&gt;&lt;br&gt;&lt;/li&gt;&lt;/ul&gt;" style="text;strokeColor=none;fillColor=none;html=1;whiteSpace=wrap;verticalAlign=middle;overflow=hidden;" vertex="1" parent="1">
          <mxGeometry x="665" y="-710" width="170" height="190" as="geometry" />
        </mxCell>
        <mxCell id="sKgOpA5cONmXiSNSF2R4-75" value="&lt;p style=&quot;line-height: 120%; font-size: 15px;&quot;&gt;Block Header&lt;/p&gt;" style="text;strokeColor=none;fillColor=none;html=1;fontSize=24;fontStyle=1;verticalAlign=middle;align=center;" vertex="1" parent="1">
          <mxGeometry x="675" y="-720" width="100" height="40" as="geometry" />
        </mxCell>
        <mxCell id="sKgOpA5cONmXiSNSF2R4-76" value="&lt;font style=&quot;font-size: 15px;&quot;&gt;Block Body&lt;/font&gt;" style="text;strokeColor=none;fillColor=none;html=1;fontSize=24;fontStyle=1;verticalAlign=middle;align=center;" vertex="1" parent="1">
          <mxGeometry x="675" y="-630" width="80" height="40" as="geometry" />
        </mxCell>
        <mxCell id="sKgOpA5cONmXiSNSF2R4-77" value="" style="whiteSpace=wrap;strokeWidth=2;fontStyle=0" vertex="1" parent="1">
          <mxGeometry x="905" y="-720" width="170" height="200" as="geometry" />
        </mxCell>
        <mxCell id="sKgOpA5cONmXiSNSF2R4-78" value="Block 2" style="text;strokeColor=none;fillColor=none;html=1;fontSize=24;fontStyle=1;verticalAlign=middle;align=center;" vertex="1" parent="1">
          <mxGeometry x="940" y="-760" width="100" height="40" as="geometry" />
        </mxCell>
        <mxCell id="sKgOpA5cONmXiSNSF2R4-79" value="&lt;ul&gt;&lt;li&gt;&lt;span style=&quot;text-align: center;&quot;&gt;Previous Block Hash&lt;/span&gt;&lt;/li&gt;&lt;li&gt;&lt;span style=&quot;text-align: center;&quot;&gt;Nonce&lt;/span&gt;&lt;/li&gt;&lt;li&gt;&lt;span style=&quot;text-align: center;&quot;&gt;Merkle Root&lt;/span&gt;&lt;/li&gt;&lt;li&gt;&lt;span style=&quot;text-align: center;&quot;&gt;Time Stamp&lt;/span&gt;&lt;/li&gt;&lt;/ul&gt;&lt;div style=&quot;text-align: center;&quot;&gt;&lt;br&gt;&lt;/div&gt;&lt;ul&gt;&lt;li&gt;Transaction counter&lt;br style=&quot;border-color: var(--border-color); padding: 0px; margin: 0px; text-align: center;&quot;&gt;&lt;/li&gt;&lt;li&gt;&lt;span style=&quot;text-align: center;&quot;&gt;Hash&lt;/span&gt;&lt;/li&gt;&lt;li&gt;&lt;span style=&quot;text-align: center;&quot;&gt;Transactions&lt;/span&gt;&lt;br&gt;&lt;/li&gt;&lt;/ul&gt;" style="text;strokeColor=none;fillColor=none;html=1;whiteSpace=wrap;verticalAlign=middle;overflow=hidden;" vertex="1" parent="1">
          <mxGeometry x="905" y="-710" width="170" height="190" as="geometry" />
        </mxCell>
        <mxCell id="sKgOpA5cONmXiSNSF2R4-80" value="&lt;p style=&quot;line-height: 120%; font-size: 15px;&quot;&gt;Block Header&lt;/p&gt;" style="text;strokeColor=none;fillColor=none;html=1;fontSize=24;fontStyle=1;verticalAlign=middle;align=center;" vertex="1" parent="1">
          <mxGeometry x="915" y="-720" width="100" height="40" as="geometry" />
        </mxCell>
        <mxCell id="sKgOpA5cONmXiSNSF2R4-81" value="&lt;font style=&quot;font-size: 15px;&quot;&gt;Block Body&lt;/font&gt;" style="text;strokeColor=none;fillColor=none;html=1;fontSize=24;fontStyle=1;verticalAlign=middle;align=center;" vertex="1" parent="1">
          <mxGeometry x="915" y="-630" width="80" height="40" as="geometry" />
        </mxCell>
        <mxCell id="sKgOpA5cONmXiSNSF2R4-83" value="" style="edgeStyle=elbowEdgeStyle;elbow=horizontal;endArrow=classic;html=1;curved=0;rounded=0;endSize=8;startSize=8;exitX=1;exitY=0.75;exitDx=0;exitDy=0;entryX=-0.002;entryY=0.172;entryDx=0;entryDy=0;entryPerimeter=0;" edge="1" parent="1" source="sKgOpA5cONmXiSNSF2R4-61" target="sKgOpA5cONmXiSNSF2R4-74">
          <mxGeometry width="50" height="50" relative="1" as="geometry">
            <mxPoint x="595" y="-570" as="sourcePoint" />
            <mxPoint x="645" y="-620" as="targetPoint" />
          </mxGeometry>
        </mxCell>
        <mxCell id="sKgOpA5cONmXiSNSF2R4-84" value="" style="edgeStyle=elbowEdgeStyle;elbow=horizontal;endArrow=classic;html=1;curved=0;rounded=0;endSize=8;startSize=8;exitX=1;exitY=0.75;exitDx=0;exitDy=0;entryX=-0.011;entryY=0.178;entryDx=0;entryDy=0;entryPerimeter=0;" edge="1" parent="1" source="sKgOpA5cONmXiSNSF2R4-74" target="sKgOpA5cONmXiSNSF2R4-79">
          <mxGeometry width="50" height="50" relative="1" as="geometry">
            <mxPoint x="837" y="-565.5" as="sourcePoint" />
            <mxPoint x="905" y="-674.5" as="targetPoint" />
          </mxGeometry>
        </mxCell>
        <mxCell id="sKgOpA5cONmXiSNSF2R4-85" value="" style="whiteSpace=wrap;strokeWidth=2;fontStyle=0" vertex="1" parent="1">
          <mxGeometry x="1145" y="-720" width="170" height="200" as="geometry" />
        </mxCell>
        <mxCell id="sKgOpA5cONmXiSNSF2R4-86" value="Block N" style="text;strokeColor=none;fillColor=none;html=1;fontSize=24;fontStyle=1;verticalAlign=middle;align=center;" vertex="1" parent="1">
          <mxGeometry x="1180" y="-760" width="100" height="40" as="geometry" />
        </mxCell>
        <mxCell id="sKgOpA5cONmXiSNSF2R4-87" value="&lt;ul&gt;&lt;li&gt;&lt;span style=&quot;text-align: center;&quot;&gt;Previous Block Hash&lt;/span&gt;&lt;/li&gt;&lt;li&gt;&lt;span style=&quot;text-align: center;&quot;&gt;Nonce&lt;/span&gt;&lt;/li&gt;&lt;li&gt;&lt;span style=&quot;text-align: center;&quot;&gt;Merkle Root&lt;/span&gt;&lt;/li&gt;&lt;li&gt;&lt;span style=&quot;text-align: center;&quot;&gt;Time Stamp&lt;/span&gt;&lt;/li&gt;&lt;/ul&gt;&lt;div style=&quot;text-align: center;&quot;&gt;&lt;br&gt;&lt;/div&gt;&lt;ul&gt;&lt;li&gt;Transaction counter&lt;br style=&quot;border-color: var(--border-color); padding: 0px; margin: 0px; text-align: center;&quot;&gt;&lt;/li&gt;&lt;li&gt;&lt;span style=&quot;text-align: center;&quot;&gt;Hash&lt;/span&gt;&lt;/li&gt;&lt;li&gt;&lt;span style=&quot;text-align: center;&quot;&gt;Transactions&lt;/span&gt;&lt;br&gt;&lt;/li&gt;&lt;/ul&gt;" style="text;strokeColor=none;fillColor=none;html=1;whiteSpace=wrap;verticalAlign=middle;overflow=hidden;" vertex="1" parent="1">
          <mxGeometry x="1145" y="-710" width="170" height="190" as="geometry" />
        </mxCell>
        <mxCell id="sKgOpA5cONmXiSNSF2R4-88" value="&lt;p style=&quot;line-height: 120%; font-size: 15px;&quot;&gt;Block Header&lt;/p&gt;" style="text;strokeColor=none;fillColor=none;html=1;fontSize=24;fontStyle=1;verticalAlign=middle;align=center;" vertex="1" parent="1">
          <mxGeometry x="1155" y="-720" width="100" height="40" as="geometry" />
        </mxCell>
        <mxCell id="sKgOpA5cONmXiSNSF2R4-89" value="&lt;font style=&quot;font-size: 15px;&quot;&gt;Block Body&lt;/font&gt;" style="text;strokeColor=none;fillColor=none;html=1;fontSize=24;fontStyle=1;verticalAlign=middle;align=center;" vertex="1" parent="1">
          <mxGeometry x="1155" y="-630" width="80" height="40" as="geometry" />
        </mxCell>
        <mxCell id="sKgOpA5cONmXiSNSF2R4-90" value="" style="edgeStyle=elbowEdgeStyle;elbow=horizontal;endArrow=classic;html=1;curved=0;rounded=0;endSize=8;startSize=8;entryX=-0.013;entryY=0.18;entryDx=0;entryDy=0;entryPerimeter=0;exitX=1;exitY=0.75;exitDx=0;exitDy=0;" edge="1" parent="1" source="sKgOpA5cONmXiSNSF2R4-79" target="sKgOpA5cONmXiSNSF2R4-87">
          <mxGeometry width="50" height="50" relative="1" as="geometry">
            <mxPoint x="1075" y="-565.5" as="sourcePoint" />
            <mxPoint x="1135" y="-680" as="targetPoint" />
          </mxGeometry>
        </mxCell>
        <mxCell id="sKgOpA5cONmXiSNSF2R4-92" value="Auction System&#39;s Blockchain Storage System" style="text;strokeColor=none;fillColor=none;html=1;fontSize=24;fontStyle=1;verticalAlign=middle;align=center;" vertex="1" parent="1">
          <mxGeometry x="790" y="-840" width="100" height="40" as="geometry" />
        </mxCell>
      </root>
    </mxGraphModel>
  </diagram>
</mxfile>
